<svg width="15" height="10" viewBox="0 0 15 10" fill="none" xmlns="http://www.w3.org/2000/svg">
<rect width="15" height="10" fill="white"/>
<g id="Background">
<rect width="1920" height="8400" transform="translate(-1548 -8361)" fill="#0F051D"/>
<g id="Content">
<g id="Footer">
<g id="div.row">
<g id="div.col-md-6">
<g id="List">
<g id="Item">
<g id="Link" opacity="0.7">
<path id="Vector" d="M7.33333 3.26303L1.54 8.98303C1.39333 9.17859 1.18556 9.27637 0.916667 9.27637C0.647778 9.27637 0.427778 9.19081 0.256667 9.0197C0.0855556 8.84859 0 8.62859 0 8.3597C0 8.09081 0.0977778 7.88303 0.293333 7.73637L6.67333 1.28303C6.86889 1.08748 7.08889 0.989701 7.33333 0.989701C7.57778 0.989701 7.79778 1.08748 7.99333 1.28303L14.3733 7.73637C14.5689 7.88303 14.6667 8.09081 14.6667 8.3597C14.6667 8.62859 14.5811 8.84859 14.41 9.0197C14.2389 9.19081 14.0189 9.27637 13.75 9.27637C13.4811 9.27637 13.2733 9.17859 13.1267 8.98303L7.33333 3.26303Z" fill="#B7B4BB"/>
</g>
</g>
</g>
</g>
</g>
</g>
</g>
</g>
</svg>
